<svg xmlns="http://www.w3.org/2000/svg" viewBox="394 59 24 38" fill="none">
  <path d="M 396.426 63.604 C 396.426 62.5 397.322 61.604 398.426 61.604 L 406.426 61.604 L 402.426 69.604 L 396.426 69.604 L 396.426 63.604 Z" fill="#ff7e40"/>
  <path d="M 402.426 69.604 L 406.426 61.604 L 414.426 61.604 C 415.531 61.604 416.426 62.5 416.426 63.604 L 416.426 69.604 L 402.426 69.604 Z" fill="#ff4b72"/>
  <path d="M 402.426 69.604 L 416.426 69.604 L 416.426 75.604 C 416.426 76.709 415.531 77.604 414.426 77.604 L 406.426 77.604 L 402.426 69.604 Z" fill="#a445ff"/>
  <path d="M 396.285 92.388 C 396.285 93.492 397.181 94.388 398.285 94.388 L 406.285 94.388 L 402.285 86.388 L 396.285 86.388 L 396.285 92.388 Z" fill="#ff7e40" opacity="0.8"/>
  <path d="M 402.285 86.388 L 406.285 94.388 L 414.285 94.388 C 415.39 94.388 416.285 93.492 416.285 92.388 L 416.285 86.388 L 402.285 86.388 Z" fill="#ff4b72" opacity="0.8"/>
<path d="M 406.285 78.388 C 406.285 78.388 406.241 78.354 406.157 78.289 C 406.234 78.317 406.308 78.344 406.38 78.368 C 409.032 80.415 411.905 82.634 415.014 85.034 C 416.293 86.014 416.262 85.493 416.256 86.388 L 402.285 86.388 L 406.285 78.388 Z" fill="#a445ff" style="stroke-width: 1;"></path>
</svg>
